<?xml version="1.0" encoding="UTF-8" standalone="no"?>
<!-- Created with Inkscape (http://www.inkscape.org/) -->

<svg
   xmlns:dc="http://purl.org/dc/elements/1.1/"
   xmlns:cc="http://creativecommons.org/ns#"
   xmlns:rdf="http://www.w3.org/1999/02/22-rdf-syntax-ns#"
   xmlns:svg="http://www.w3.org/2000/svg"
   xmlns="http://www.w3.org/2000/svg"
   xmlns:sodipodi="http://sodipodi.sourceforge.net/DTD/sodipodi-0.dtd"
   xmlns:inkscape="http://www.inkscape.org/namespaces/inkscape"
   width="501"
   height="262"
   id="svg3294"
   version="1.1"
   inkscape:version="0.47 r22583"
   sodipodi:docname="UPMC Sorbonne Universites2.svg">
  <defs
     id="defs3296">
    <inkscape:perspective
       sodipodi:type="inkscape:persp3d"
       inkscape:vp_x="0 : 526.18109 : 1"
       inkscape:vp_y="0 : 1000 : 0"
       inkscape:vp_z="744.09448 : 526.18109 : 1"
       inkscape:persp3d-origin="372.04724 : 350.78739 : 1"
       id="perspective3302" />
    <inkscape:perspective
       id="perspective3256"
       inkscape:persp3d-origin="0.5 : 0.33333333 : 1"
       inkscape:vp_z="1 : 0.5 : 1"
       inkscape:vp_y="0 : 1000 : 0"
       inkscape:vp_x="0 : 0.5 : 1"
       sodipodi:type="inkscape:persp3d" />
    <clipPath
       clipPathUnits="userSpaceOnUse"
       id="clipPath20">
      <path
         d="m 0,0 6120,0 0,5952.75 -6120,0 L 0,0 z"
         id="path22" />
    </clipPath>
  </defs>
  <sodipodi:namedview
     id="base"
     pagecolor="#ffffff"
     bordercolor="#ffffff"
     borderopacity="0.0"
     inkscape:pageopacity="0.0"
     inkscape:pageshadow="0"
     inkscape:zoom="0.35"
     inkscape:cx="350.5"
     inkscape:cy="59.571428"
     inkscape:document-units="px"
     inkscape:current-layer="layer1"
     showgrid="false"
     inkscape:window-width="589"
     inkscape:window-height="479"
     inkscape:window-x="1083"
     inkscape:window-y="508"
     inkscape:window-maximized="0" />
  <metadata
     id="metadata3299">
    <rdf:RDF>
      <cc:Work
         rdf:about="">
        <dc:format>image/svg+xml</dc:format>
        <dc:type
           rdf:resource="http://purl.org/dc/dcmitype/StillImage" />
        <dc:title></dc:title>
      </cc:Work>
    </rdf:RDF>
  </metadata>
  <g
     inkscape:label="Layer 1"
     inkscape:groupmode="layer"
     id="layer1"
     transform="translate(0.49999894,-329.9336)">
    <g
       id="g12"
       inkscape:groupmode="layer"
       inkscape:label="ink_ext_XXXXXX"
       transform="matrix(1.2490775,0,0,-1.2502625,-263.93544,832.50537)">
      <g
         id="g14"
         transform="scale(0.1,0.1)">
        <g
           id="g16">
          <g
             id="g18"
             clip-path="url(#clipPath20)">
            <path
               d="m 2109.04,1924.17 4010.96,0 0,2095.56 -4010.96,0 0,-2095.56 z"
               style="fill:#ffffff;fill-opacity:1;fill-rule:nonzero;stroke:none"
               id="path24" />
            <path
               d="m 2880.55,2539.48 0,-90.02 130.39,0 0,90.02 c 0,42.11 -26.09,68.85 -64.83,68.85 -38.78,0 -65.56,-26.74 -65.56,-68.85"
               style="fill:#f14b1c;fill-opacity:1;fill-rule:nonzero;stroke:none"
               id="path26" />
            <path
               d="m 2713.08,2539.48 0,-90.02 130.33,0 0,90.02 c 0,42.11 -26.01,68.85 -64.83,68.85 -38.79,0 -65.5,-26.74 -65.5,-68.85"
               style="fill:#f14b1c;fill-opacity:1;fill-rule:nonzero;stroke:none"
               id="path28" />
            <path
               d="m 3049.22,2539.48 0,-90.02 64.62,0 0,158.87 c -38.8,0 -64.62,-26.74 -64.62,-68.85"
               style="fill:#f14b1c;fill-opacity:1;fill-rule:nonzero;stroke:none"
               id="path30" />
            <path
               d="m 2611.04,2608.33 -1.04,-0.04 0,-158.83 65.88,0 0,90.02 c 0,42.11 -26.07,68.85 -64.84,68.85"
               style="fill:#f14b1c;fill-opacity:1;fill-rule:nonzero;stroke:none"
               id="path32" />
            <path
               d="m 3034.7,3517.82 c -2.2,0.25 -4.46,0.37 -6.66,0.37 l -0.03,0 -0.86,-0.05 -0.86,0.05 c -45.18,0 -81.72,-36.6 -81.72,-81.75 l 0,-480.61 c 0,-46.82 -37.97,-84.95 -84.7,-85.46 -46.75,0.51 -84.66,38.64 -84.66,85.46 l 0,480.61 c 0,45.15 -36.67,81.75 -81.76,81.75 l -0.86,-0.05 -0.81,0.05 c -2.29,0 -4.55,-0.12 -6.72,-0.37 -42.04,-3.36 -75.06,-38.5 -75.06,-81.38 l 0,-480.61 c 0,-137.28 111.67,-249.03 249.02,-249.03 l 1.7,0 c 137.31,0 249.05,111.75 249.05,249.03 l 0,480.61 c 0,42.88 -33.09,78.02 -75.07,81.38"
               style="fill:#8c6851;fill-opacity:1;fill-rule:nonzero;stroke:none"
               id="path34" />
            <path
               d="m 4739.31,3518.19 c -64.72,0 -123.79,-24.84 -168.15,-65.53 -44.34,40.69 -103.34,65.53 -168.11,65.53 -137.33,0 -249.05,-111.71 -249.05,-249.04 l 0,-480.59 c 0,-45.16 36.56,-81.76 81.73,-81.76 45.16,0 81.78,36.6 81.78,81.76 l 0,480.59 c 0,47.17 38.4,85.5 85.54,85.5 47.16,0 85.49,-38.33 85.49,-85.5 l 0,-480.59 c 0,-45.16 36.65,-81.76 81.83,-81.76 l 1.71,0 c 45.13,0 81.73,36.6 81.73,81.76 l 0,480.59 c 0,47.17 38.37,85.5 85.5,85.5 47.18,0 85.56,-38.33 85.56,-85.5 l 0,-480.59 c 0,-45.16 36.55,-81.76 81.75,-81.76 45.15,0 81.72,36.6 81.72,81.76 l 0,480.59 c 0,137.33 -111.75,249.04 -249.03,249.04"
               style="fill:#8c6851;fill-opacity:1;fill-rule:nonzero;stroke:none"
               id="path36" />
            <path
               d="m 5195.77,3399.21 c -77.6,-77.57 -120.31,-180.75 -120.31,-290.51 0,-109.72 42.71,-212.87 120.31,-290.42 160.21,-160.24 420.82,-160.24 580.99,0 28.99,28.9 28.99,75.87 0,104.79 -28.99,29 -75.9,29 -104.87,0 -102.33,-102.3 -268.85,-102.3 -371.26,0 -49.54,49.63 -76.83,115.52 -76.83,185.63 0,70.15 27.29,136.09 76.83,185.64 102.41,102.36 268.93,102.36 371.26,0 28.97,-28.97 75.88,-28.97 104.87,0 28.99,28.99 28.99,75.91 0,104.87 -160.17,160.16 -420.78,160.16 -580.99,0"
               style="fill:#8c6851;fill-opacity:1;fill-rule:nonzero;stroke:none"
               id="path38" />
            <path
               d="m 4062.29,3275.75 c 0,134.15 -109.16,243.33 -243.36,243.33 l -530.66,0 c -2.76,0 -5.49,-0.16 -8.22,-0.47 -40.27,-4.08 -71.67,-38.1 -71.67,-79.41 l 0.02,-0.88 -0.02,-0.8 c 0,-44.15 35.8,-79.95 79.89,-79.95 l 530.66,0 c 45.79,0 83.1,-37.02 83.53,-82.69 -0.43,-45.68 -37.74,-82.72 -83.53,-82.72 l -370.9,0 c -134.12,0 -243.28,-109.2 -243.28,-243.36 l 0.03,-0.82 -0.03,-0.86 0,-158.21 c 0,-2.74 0.15,-5.5 0.39,-8.17 4.12,-40.28 38.1,-71.69 79.47,-71.69 l 0.82,0.02 0.85,-0.02 c 44.15,0 79.85,35.73 79.85,79.86 l -1.65,159.07 c 0.5,45.63 37.77,82.71 83.55,82.71 l 370.9,0 c 134.2,0 243.36,109.17 243.36,243.33 l -0.01,0.86 0.01,0.87"
               style="fill:#8c6851;fill-opacity:1;fill-rule:nonzero;stroke:none"
               id="path40" />
            <path
               d="m 3271.52,2447.54 c -24.16,0 -42.52,5.15 -58.19,21.07 l 20.16,20.1 c 10.05,-10.06 23.72,-13.4 38.47,-13.4 18.37,0 28.21,6.91 28.21,19.7 0,5.59 -1.56,10.27 -4.93,13.44 -3.13,2.88 -6.71,4.47 -14.09,5.58 l -19.26,2.68 c -13.63,2.02 -23.7,6.25 -30.86,13.22 -7.62,7.59 -11.42,17.88 -11.42,31.35 0,28.42 21.02,48.32 55.5,48.32 21.93,0 37.82,-5.38 51.47,-18.58 l -19.69,-19.47 c -10.07,9.61 -22.16,10.99 -32.68,10.99 -16.55,0 -24.61,-9.18 -24.61,-20.17 0,-4.01 1.33,-8.29 4.7,-11.41 3.13,-2.91 8.27,-5.37 14.76,-6.27 l 18.8,-2.68 c 14.55,-2.02 23.73,-6.05 30.44,-12.3 8.51,-8.07 12.31,-19.72 12.31,-33.81 0,-30.87 -25.74,-48.36 -59.09,-48.36"
               style="fill:#8c6851;fill-opacity:1;fill-rule:nonzero;stroke:none"
               id="path42" />
            <path
               d="m 3433.14,2573.36 c -4.47,5.11 -11.41,8.48 -19.91,8.48 -8.52,0 -15.67,-3.37 -20.16,-8.48 -6.04,-6.7 -7.6,-14.12 -7.6,-44.8 0,-30.65 1.56,-38.05 7.6,-44.75 4.49,-5.16 11.64,-8.5 20.16,-8.5 8.5,0 15.44,3.34 19.91,8.5 6.04,6.7 7.84,14.1 7.84,44.75 0,30.68 -1.8,38.1 -7.84,44.8 z m 23.06,-108.33 c -11.19,-11.21 -24.85,-17.49 -42.97,-17.49 -18.13,0 -32,6.28 -43.22,17.49 -16.11,16.09 -15.66,36.02 -15.66,63.53 0,27.54 -0.45,47.47 15.66,63.57 11.22,11.19 25.09,17.47 43.22,17.47 18.12,0 31.78,-6.28 42.97,-17.47 16.1,-16.1 15.89,-36.03 15.89,-63.57 0,-27.51 0.21,-47.44 -15.89,-63.53"
               style="fill:#8c6851;fill-opacity:1;fill-rule:nonzero;stroke:none"
               id="path44" />
            <path
               d="m 3564.08,2580.5 -29.29,0 0,-42.08 29.29,0 c 13.66,0 22.62,8.74 22.62,21.04 0,12.3 -8.96,21.04 -22.62,21.04 z m 24.18,-131.61 -31.11,63.58 -22.36,0 0,-63.58 -31.11,0 0,159.38 62.42,0 c 32.46,0 51.71,-22.16 51.71,-48.81 0,-22.37 -13.66,-36.23 -29.09,-41.83 l 35.59,-68.74 -36.05,0"
               style="fill:#8c6851;fill-opacity:1;fill-rule:nonzero;stroke:none"
               id="path46" />
            <path
               d="m 3713.4,2515.83 -32.46,0 0,-39.19 32.46,0 c 14.1,0 20.82,8.96 20.82,19.71 0,10.73 -6.72,19.48 -20.82,19.48 z m -2.02,64.67 -30.44,0 0,-36.71 30.44,0 c 13.22,0 20.6,7.4 20.6,18.36 0,10.99 -7.38,18.35 -20.6,18.35 z m 5.17,-131.61 -66.72,0 0,159.38 64.03,0 c 31.11,0 49.23,-17.46 49.23,-44.8 0,-17.66 -11.63,-29.08 -19.69,-32.88 9.62,-4.47 21.93,-14.55 21.93,-35.81 0,-29.75 -20.36,-45.89 -48.78,-45.89"
               style="fill:#8c6851;fill-opacity:1;fill-rule:nonzero;stroke:none"
               id="path48" />
            <path
               d="m 3870.32,2573.36 c -4.49,5.11 -11.42,8.48 -19.94,8.48 -8.5,0 -15.66,-3.37 -20.13,-8.48 -6.04,-6.7 -7.61,-14.12 -7.61,-44.8 0,-30.65 1.57,-38.05 7.61,-44.75 4.47,-5.16 11.63,-8.5 20.13,-8.5 8.52,0 15.45,3.34 19.94,8.5 6.04,6.7 7.82,14.1 7.82,44.75 0,30.68 -1.78,38.1 -7.82,44.8 z m 23.05,-108.33 c -11.19,-11.21 -24.84,-17.49 -42.99,-17.49 -18.12,0 -32,6.28 -43.17,17.49 -16.13,16.09 -15.67,36.02 -15.67,63.53 0,27.54 -0.46,47.47 15.67,63.57 11.17,11.19 25.05,17.47 43.17,17.47 18.15,0 31.8,-6.28 42.99,-17.47 16.11,-16.1 15.89,-36.03 15.89,-63.57 0,-27.51 0.22,-47.44 -15.89,-63.53"
               style="fill:#8c6851;fill-opacity:1;fill-rule:nonzero;stroke:none"
               id="path50" />
            <path
               d="m 4035.09,2448.89 -63.14,97.82 0,-97.82 -31.11,0 0,159.38 27.76,0 63.12,-97.61 0,97.61 31.12,0 0,-159.38 -27.75,0"
               style="fill:#8c6851;fill-opacity:1;fill-rule:nonzero;stroke:none"
               id="path52" />
            <path
               d="m 4193.99,2448.89 -63.12,97.82 0,-97.82 -31.1,0 0,159.38 27.76,0 63.11,-97.61 0,97.61 31.12,0 0,-159.38 -27.77,0"
               style="fill:#8c6851;fill-opacity:1;fill-rule:nonzero;stroke:none"
               id="path54" />
            <path
               d="m 4258.72,2448.89 0,159.38 104.95,0 0,-27.77 -73.86,0 0,-37.39 62.91,0 0,-27.74 -62.91,0 0,-38.73 73.86,0 0,-27.75 -104.95,0"
               style="fill:#8c6851;fill-opacity:1;fill-rule:nonzero;stroke:none"
               id="path56" />
            <path
               d="m 4501.83,2447.54 c -32.69,0 -58.67,22.16 -58.67,55.96 l 0,104.77 31.12,0 0,-103.64 c 0,-18.34 10.75,-29.32 27.55,-29.32 16.77,0 27.74,10.98 27.74,29.32 l 0,103.64 30.88,0 0,-104.77 c 0,-33.8 -25.96,-55.96 -58.62,-55.96"
               style="fill:#c0a896;fill-opacity:1;fill-rule:nonzero;stroke:none"
               id="path58" />
            <path
               d="m 4716.95,2448.89 -27.78,0 -63.12,97.82 0,-97.82 -31.09,0 0,159.38 27.75,0 63.11,-97.61 0,97.61 31.13,0 0,-159.38"
               style="fill:#c0a896;fill-opacity:1;fill-rule:nonzero;stroke:none"
               id="path60" />
            <path
               d="m 4753.89,2448.89 31.0977,0 0,159.379 -31.0977,0 0,-159.379 z"
               style="fill:#c0a896;fill-opacity:1;fill-rule:nonzero;stroke:none"
               id="path62" />
            <path
               d="m 4879.91,2448.89 -23.28,0 -52.59,159.38 32.23,0 32.01,-103.87 31.99,103.87 32.47,0 -52.83,-159.38"
               style="fill:#c0a896;fill-opacity:1;fill-rule:nonzero;stroke:none"
               id="path64" />
            <path
               d="m 5056.76,2448.89 -104.97,0 0,159.38 104.97,0 0,-27.77 -73.86,0 0,-37.39 62.88,0 0,-27.74 -62.88,0 0,-38.73 73.86,0 0,-27.75"
               style="fill:#c0a896;fill-opacity:1;fill-rule:nonzero;stroke:none"
               id="path66" />
            <path
               d="m 5207.64,2448.89 -36.05,0 -31.11,63.58 -22.37,0 0,-63.58 -31.11,0 0,159.38 62.43,0 c 32.47,0 51.7,-22.16 51.7,-48.81 0,-22.37 -13.63,-36.23 -29.08,-41.83 l 35.59,-68.74 m -89.53,131.61 0,-42.08 29.31,0 c 13.67,0 22.62,8.74 22.62,21.04 0,12.3 -8.95,21.04 -22.62,21.04 l -29.31,0"
               style="fill:#c0a896;fill-opacity:1;fill-rule:nonzero;stroke:none"
               id="path68" />
            <path
               d="m 5277.03,2447.54 c -24.16,0 -42.5,5.15 -58.18,21.07 l 20.14,20.1 c 10.06,-10.06 23.74,-13.4 38.5,-13.4 18.35,0 28.2,6.91 28.2,19.7 0,5.59 -1.57,10.27 -4.92,13.44 -3.14,2.88 -6.72,4.47 -14.11,5.58 l -19.23,2.68 c -13.66,2.02 -23.74,6.25 -30.91,13.22 -7.61,7.59 -11.4,17.88 -11.4,31.35 0,28.42 21.03,48.32 55.51,48.32 21.92,0 37.83,-5.37 51.47,-18.58 l -19.7,-19.47 c -10.08,9.61 -22.17,10.99 -32.66,10.99 -16.57,0 -24.64,-9.18 -24.64,-20.17 0,-4.01 1.36,-8.29 4.7,-11.41 3.16,-2.91 8.29,-5.37 14.76,-6.27 l 18.82,-2.68 c 14.56,-2.02 23.73,-6.05 30.44,-12.3 8.52,-8.07 12.31,-19.72 12.31,-33.81 0,-30.87 -25.75,-48.36 -59.1,-48.36"
               style="fill:#c0a896;fill-opacity:1;fill-rule:nonzero;stroke:none"
               id="path70" />
            <path
               d="m 5365.25,2448.89 31.1016,0 0,159.379 -31.1016,0 0,-159.379 z"
               style="fill:#c0a896;fill-opacity:1;fill-rule:nonzero;stroke:none"
               id="path72" />
            <path
               d="m 5494.18,2448.89 -31.11,0 0,131.61 -41.63,0 0,27.77 114.36,0 0,-27.77 -41.62,0 0,-131.61"
               style="fill:#c0a896;fill-opacity:1;fill-rule:nonzero;stroke:none"
               id="path74" />
            <path
               d="m 5665.87,2448.89 -104.96,0 0,159.38 104.96,0 0,-27.77 -73.86,0 0,-37.39 62.9,0 0,-27.74 -62.9,0 0,-38.73 73.86,0 0,-27.75 m -47.21,174.81 -19.48,0 14.32,38.07 30.66,0 -25.5,-38.07"
               style="fill:#c0a896;fill-opacity:1;fill-rule:nonzero;stroke:none"
               id="path76" />
            <path
               d="m 5739.99,2447.54 c -24.19,0 -42.54,5.15 -58.2,21.07 l 20.14,20.1 c 10.09,-10.06 23.72,-13.4 38.49,-13.4 18.36,0 28.21,6.91 28.21,19.7 0,5.59 -1.56,10.27 -4.92,13.44 -3.14,2.88 -6.72,4.47 -14.09,5.58 l -19.27,2.68 c -13.64,2.02 -23.72,6.25 -30.88,13.22 -7.62,7.59 -11.41,17.88 -11.41,31.35 0,28.42 21.03,48.32 55.51,48.32 21.94,0 37.82,-5.37 51.47,-18.58 l -19.69,-19.47 c -10.06,9.61 -22.16,10.99 -32.69,10.99 -16.57,0 -24.6,-9.18 -24.6,-20.17 0,-4.01 1.32,-8.29 4.68,-11.41 3.14,-2.91 8.28,-5.37 14.78,-6.27 l 18.81,-2.68 c 14.55,-2.02 23.71,-6.05 30.43,-12.3 8.5,-8.07 12.32,-19.72 12.32,-33.81 0,-30.87 -25.75,-48.36 -59.09,-48.36"
               style="fill:#c0a896;fill-opacity:1;fill-rule:nonzero;stroke:none"
               id="path78" />
          </g>
        </g>
      </g>
    </g>
  </g>
</svg>
